<mxfile host="app.diagrams.net" modified="2023-03-09T15:26:00.049Z" agent="5.0 (Windows NT 10.0; Win64; x64) AppleWebKit/537.36 (KHTML, like Gecko) Chrome/110.0.0.0 Safari/537.36" etag="M5dru-u9876RiZMtm5Ro" version="21.0.6" type="github">
  <diagram name="第 1 页" id="AM08NWJNplkB4oypfO1E">
    <mxGraphModel dx="1366" dy="1973" grid="1" gridSize="10" guides="1" tooltips="1" connect="1" arrows="1" fold="1" page="1" pageScale="1" pageWidth="827" pageHeight="1169" math="0" shadow="0">
      <root>
        <mxCell id="0" />
        <mxCell id="1" parent="0" />
        <mxCell id="lebmXXuDAcAGATDxGBFP-3" value="" style="edgeStyle=orthogonalEdgeStyle;rounded=0;orthogonalLoop=1;jettySize=auto;html=1;" edge="1" parent="1" source="lebmXXuDAcAGATDxGBFP-1" target="lebmXXuDAcAGATDxGBFP-2">
          <mxGeometry relative="1" as="geometry">
            <Array as="points">
              <mxPoint x="180" y="100" />
            </Array>
          </mxGeometry>
        </mxCell>
        <mxCell id="lebmXXuDAcAGATDxGBFP-1" value="学习" style="rounded=0;whiteSpace=wrap;html=1;" vertex="1" parent="1">
          <mxGeometry x="120" y="170" width="120" height="60" as="geometry" />
        </mxCell>
        <mxCell id="lebmXXuDAcAGATDxGBFP-7" value="" style="edgeStyle=orthogonalEdgeStyle;rounded=0;orthogonalLoop=1;jettySize=auto;html=1;" edge="1" parent="1" source="lebmXXuDAcAGATDxGBFP-2" target="lebmXXuDAcAGATDxGBFP-4">
          <mxGeometry relative="1" as="geometry">
            <Array as="points">
              <mxPoint x="390" y="-80" />
            </Array>
          </mxGeometry>
        </mxCell>
        <mxCell id="lebmXXuDAcAGATDxGBFP-11" style="edgeStyle=orthogonalEdgeStyle;rounded=0;orthogonalLoop=1;jettySize=auto;html=1;entryX=0;entryY=0.5;entryDx=0;entryDy=0;" edge="1" parent="1" source="lebmXXuDAcAGATDxGBFP-2" target="lebmXXuDAcAGATDxGBFP-10">
          <mxGeometry relative="1" as="geometry">
            <Array as="points">
              <mxPoint x="390" y="20" />
            </Array>
          </mxGeometry>
        </mxCell>
        <mxCell id="lebmXXuDAcAGATDxGBFP-14" value="" style="edgeStyle=orthogonalEdgeStyle;rounded=0;orthogonalLoop=1;jettySize=auto;html=1;" edge="1" parent="1" source="lebmXXuDAcAGATDxGBFP-2" target="lebmXXuDAcAGATDxGBFP-13">
          <mxGeometry relative="1" as="geometry" />
        </mxCell>
        <mxCell id="lebmXXuDAcAGATDxGBFP-16" value="" style="edgeStyle=orthogonalEdgeStyle;rounded=0;orthogonalLoop=1;jettySize=auto;html=1;" edge="1" parent="1" source="lebmXXuDAcAGATDxGBFP-2" target="lebmXXuDAcAGATDxGBFP-13">
          <mxGeometry relative="1" as="geometry" />
        </mxCell>
        <mxCell id="lebmXXuDAcAGATDxGBFP-18" value="" style="edgeStyle=orthogonalEdgeStyle;rounded=0;orthogonalLoop=1;jettySize=auto;html=1;" edge="1" parent="1" source="lebmXXuDAcAGATDxGBFP-2" target="lebmXXuDAcAGATDxGBFP-17">
          <mxGeometry relative="1" as="geometry">
            <Array as="points">
              <mxPoint x="380" y="200" />
            </Array>
          </mxGeometry>
        </mxCell>
        <mxCell id="lebmXXuDAcAGATDxGBFP-20" style="edgeStyle=orthogonalEdgeStyle;rounded=0;orthogonalLoop=1;jettySize=auto;html=1;entryX=0;entryY=0.5;entryDx=0;entryDy=0;" edge="1" parent="1" source="lebmXXuDAcAGATDxGBFP-2" target="lebmXXuDAcAGATDxGBFP-19">
          <mxGeometry relative="1" as="geometry" />
        </mxCell>
        <mxCell id="lebmXXuDAcAGATDxGBFP-2" value="书籍" style="rounded=0;whiteSpace=wrap;html=1;" vertex="1" parent="1">
          <mxGeometry x="320" y="70" width="120" height="60" as="geometry" />
        </mxCell>
        <mxCell id="lebmXXuDAcAGATDxGBFP-4" value="go语言开发实战" style="rounded=0;whiteSpace=wrap;html=1;" vertex="1" parent="1">
          <mxGeometry x="450" y="-120" width="120" height="60" as="geometry" />
        </mxCell>
        <mxCell id="lebmXXuDAcAGATDxGBFP-6" value="&lt;p style=&quot;margin: 1.4em 0px; color: rgb(18, 18, 18); font-family: -apple-system, BlinkMacSystemFont, &amp;quot;Helvetica Neue&amp;quot;, &amp;quot;PingFang SC&amp;quot;, &amp;quot;Microsoft YaHei&amp;quot;, &amp;quot;Source Han Sans SC&amp;quot;, &amp;quot;Noto Sans CJK SC&amp;quot;, &amp;quot;WenQuanYi Micro Hei&amp;quot;, sans-serif; font-size: 15px; font-style: normal; font-variant-ligatures: normal; font-variant-caps: normal; font-weight: 400; letter-spacing: normal; orphans: 2; text-align: start; text-indent: 0px; text-transform: none; widows: 2; word-spacing: 0px; -webkit-text-stroke-width: 0px; background-color: rgb(255, 255, 255); text-decoration-thickness: initial; text-decoration-style: initial; text-decoration-color: initial;&quot; data-pid=&quot;pu1XMuix&quot;&gt;&lt;a style=&quot;color: inherit; text-decoration: none; border-bottom: 1px solid rgb(128, 128, 128); cursor: pointer;&quot; data-za-detail-view-id=&quot;1043&quot; rel=&quot;nofollow noreferrer&quot; target=&quot;_blank&quot; class=&quot;wrap external&quot; href=&quot;https://link.zhihu.com/?target=https%3A//pan.baidu.com/s/1sE6RQ5We5ciLtkkWAaSyyQ&quot;&gt;Go并发实战链接：&lt;/a&gt;提取码：41zd&lt;/p&gt;&lt;p style=&quot;margin: 1.4em 0px; color: rgb(18, 18, 18); font-family: -apple-system, BlinkMacSystemFont, &amp;quot;Helvetica Neue&amp;quot;, &amp;quot;PingFang SC&amp;quot;, &amp;quot;Microsoft YaHei&amp;quot;, &amp;quot;Source Han Sans SC&amp;quot;, &amp;quot;Noto Sans CJK SC&amp;quot;, &amp;quot;WenQuanYi Micro Hei&amp;quot;, sans-serif; font-size: 15px; font-style: normal; font-variant-ligatures: normal; font-variant-caps: normal; font-weight: 400; letter-spacing: normal; orphans: 2; text-align: start; text-indent: 0px; text-transform: none; widows: 2; word-spacing: 0px; -webkit-text-stroke-width: 0px; background-color: rgb(255, 255, 255); text-decoration-thickness: initial; text-decoration-style: initial; text-decoration-color: initial;&quot; data-pid=&quot;KCCDLvuJ&quot;&gt;&lt;a style=&quot;color: inherit; text-decoration: none; border-bottom: 1px solid rgb(128, 128, 128); cursor: pointer;&quot; data-za-detail-view-id=&quot;1043&quot; rel=&quot;nofollow noreferrer&quot; target=&quot;_blank&quot; class=&quot;wrap external&quot; href=&quot;https://link.zhihu.com/?target=https%3A//pan.baidu.com/s/1yo_weXsbl_tMXjJrVPMI-A&quot;&gt;Go语言编程链接&lt;/a&gt;&lt;span&gt;&amp;nbsp;&lt;/span&gt;提取码：dcu3&lt;/p&gt;&lt;p style=&quot;margin: 1.4em 0px; color: rgb(18, 18, 18); font-family: -apple-system, BlinkMacSystemFont, &amp;quot;Helvetica Neue&amp;quot;, &amp;quot;PingFang SC&amp;quot;, &amp;quot;Microsoft YaHei&amp;quot;, &amp;quot;Source Han Sans SC&amp;quot;, &amp;quot;Noto Sans CJK SC&amp;quot;, &amp;quot;WenQuanYi Micro Hei&amp;quot;, sans-serif; font-size: 15px; font-style: normal; font-variant-ligatures: normal; font-variant-caps: normal; font-weight: 400; letter-spacing: normal; orphans: 2; text-align: start; text-indent: 0px; text-transform: none; widows: 2; word-spacing: 0px; -webkit-text-stroke-width: 0px; background-color: rgb(255, 255, 255); text-decoration-thickness: initial; text-decoration-style: initial; text-decoration-color: initial;&quot; data-pid=&quot;9ihH2KPv&quot;&gt;&lt;a style=&quot;color: inherit; text-decoration: none; border-bottom: 1px solid rgb(128, 128, 128); cursor: pointer;&quot; data-za-detail-view-id=&quot;1043&quot; rel=&quot;nofollow noreferrer&quot; target=&quot;_blank&quot; class=&quot;wrap external&quot; href=&quot;https://link.zhihu.com/?target=https%3A//pan.baidu.com/s/1MNkUhJT-ZQA5D7-tGAX-Lg&quot;&gt;Go语言标准库链接&lt;/a&gt;：提取码：8kx9&lt;/p&gt;&lt;p style=&quot;margin: 1.4em 0px; color: rgb(18, 18, 18); font-family: -apple-system, BlinkMacSystemFont, &amp;quot;Helvetica Neue&amp;quot;, &amp;quot;PingFang SC&amp;quot;, &amp;quot;Microsoft YaHei&amp;quot;, &amp;quot;Source Han Sans SC&amp;quot;, &amp;quot;Noto Sans CJK SC&amp;quot;, &amp;quot;WenQuanYi Micro Hei&amp;quot;, sans-serif; font-size: 15px; font-style: normal; font-variant-ligatures: normal; font-variant-caps: normal; font-weight: 400; letter-spacing: normal; orphans: 2; text-align: start; text-indent: 0px; text-transform: none; widows: 2; word-spacing: 0px; -webkit-text-stroke-width: 0px; background-color: rgb(255, 255, 255); text-decoration-thickness: initial; text-decoration-style: initial; text-decoration-color: initial;&quot; data-pid=&quot;55BO3k29&quot;&gt;&lt;a style=&quot;color: inherit; text-decoration: none; border-bottom: 1px solid rgb(128, 128, 128); cursor: pointer;&quot; data-za-detail-view-id=&quot;1043&quot; rel=&quot;nofollow noreferrer&quot; target=&quot;_blank&quot; class=&quot;wrap external&quot; href=&quot;https://link.zhihu.com/?target=https%3A//pan.baidu.com/s/1db91f8NGAzhMicPGdxuBPA&quot;&gt;Go语言程序设计：&lt;/a&gt;提取码：2uqt&lt;/p&gt;&lt;p style=&quot;margin: 1.4em 0px; color: rgb(18, 18, 18); font-family: -apple-system, BlinkMacSystemFont, &amp;quot;Helvetica Neue&amp;quot;, &amp;quot;PingFang SC&amp;quot;, &amp;quot;Microsoft YaHei&amp;quot;, &amp;quot;Source Han Sans SC&amp;quot;, &amp;quot;Noto Sans CJK SC&amp;quot;, &amp;quot;WenQuanYi Micro Hei&amp;quot;, sans-serif; font-size: 15px; font-style: normal; font-variant-ligatures: normal; font-variant-caps: normal; font-weight: 400; letter-spacing: normal; orphans: 2; text-align: start; text-indent: 0px; text-transform: none; widows: 2; word-spacing: 0px; -webkit-text-stroke-width: 0px; background-color: rgb(255, 255, 255); text-decoration-thickness: initial; text-decoration-style: initial; text-decoration-color: initial;&quot; data-pid=&quot;l8x5vNpj&quot;&gt;&lt;a style=&quot;color: inherit; text-decoration: none; border-bottom: 1px solid rgb(128, 128, 128); cursor: pointer;&quot; data-za-detail-view-id=&quot;1043&quot; rel=&quot;nofollow noreferrer&quot; target=&quot;_blank&quot; class=&quot;wrap external&quot; href=&quot;https://link.zhihu.com/?target=https%3A//pan.baidu.com/s/19xZJsF8KyCGp2fO4VYvPmA&quot;&gt;Go语言圣经&lt;/a&gt;：提取码：7emu&lt;/p&gt;&lt;p style=&quot;margin: 1.4em 0px; color: rgb(18, 18, 18); font-family: -apple-system, BlinkMacSystemFont, &amp;quot;Helvetica Neue&amp;quot;, &amp;quot;PingFang SC&amp;quot;, &amp;quot;Microsoft YaHei&amp;quot;, &amp;quot;Source Han Sans SC&amp;quot;, &amp;quot;Noto Sans CJK SC&amp;quot;, &amp;quot;WenQuanYi Micro Hei&amp;quot;, sans-serif; font-size: 15px; font-style: normal; font-variant-ligatures: normal; font-variant-caps: normal; font-weight: 400; letter-spacing: normal; orphans: 2; text-align: start; text-indent: 0px; text-transform: none; widows: 2; word-spacing: 0px; -webkit-text-stroke-width: 0px; background-color: rgb(255, 255, 255); text-decoration-thickness: initial; text-decoration-style: initial; text-decoration-color: initial;&quot; data-pid=&quot;iz8coqjZ&quot;&gt;&lt;a style=&quot;color: inherit; text-decoration: none; border-bottom: 1px solid rgb(128, 128, 128); cursor: pointer;&quot; data-za-detail-view-id=&quot;1043&quot; rel=&quot;nofollow noreferrer&quot; target=&quot;_blank&quot; class=&quot;wrap external&quot; href=&quot;https://link.zhihu.com/?target=https%3A//pan.baidu.com/s/143UFM4Uoir_yGRgSgt7hsA&quot;&gt;Go语言实战&lt;/a&gt;：提取码：f7o2&lt;/p&gt;&lt;p style=&quot;margin: 1.4em 0px; color: rgb(18, 18, 18); font-family: -apple-system, BlinkMacSystemFont, &amp;quot;Helvetica Neue&amp;quot;, &amp;quot;PingFang SC&amp;quot;, &amp;quot;Microsoft YaHei&amp;quot;, &amp;quot;Source Han Sans SC&amp;quot;, &amp;quot;Noto Sans CJK SC&amp;quot;, &amp;quot;WenQuanYi Micro Hei&amp;quot;, sans-serif; font-size: 15px; font-style: normal; font-variant-ligatures: normal; font-variant-caps: normal; font-weight: 400; letter-spacing: normal; orphans: 2; text-align: start; text-indent: 0px; text-transform: none; widows: 2; word-spacing: 0px; -webkit-text-stroke-width: 0px; background-color: rgb(255, 255, 255); text-decoration-thickness: initial; text-decoration-style: initial; text-decoration-color: initial;&quot; data-pid=&quot;2B8skWMp&quot;&gt;&lt;a style=&quot;color: inherit; text-decoration: none; border-bottom: 1px solid rgb(128, 128, 128); cursor: pointer;&quot; data-za-detail-view-id=&quot;1043&quot; rel=&quot;nofollow noreferrer&quot; target=&quot;_blank&quot; class=&quot;wrap external&quot; href=&quot;https://link.zhihu.com/?target=https%3A//pan.baidu.com/s/1qnle6ZlgtSYANwjN4spS8Q&quot;&gt;Go语言学习&lt;/a&gt;笔记：提取码：7il3&lt;/p&gt;" style="text;whiteSpace=wrap;html=1;" vertex="1" parent="1">
          <mxGeometry x="245" y="350" width="270" height="320" as="geometry" />
        </mxCell>
        <mxCell id="lebmXXuDAcAGATDxGBFP-10" value="go语言编程" style="rounded=0;whiteSpace=wrap;html=1;" vertex="1" parent="1">
          <mxGeometry x="450" y="-10" width="120" height="60" as="geometry" />
        </mxCell>
        <mxCell id="lebmXXuDAcAGATDxGBFP-13" value="go语言标准库" style="rounded=0;whiteSpace=wrap;html=1;" vertex="1" parent="1">
          <mxGeometry x="490" y="70" width="120" height="60" as="geometry" />
        </mxCell>
        <mxCell id="lebmXXuDAcAGATDxGBFP-17" value="go语言程序设计" style="rounded=0;whiteSpace=wrap;html=1;" vertex="1" parent="1">
          <mxGeometry x="490" y="170" width="120" height="60" as="geometry" />
        </mxCell>
        <mxCell id="lebmXXuDAcAGATDxGBFP-19" value="go语言圣经" style="rounded=0;whiteSpace=wrap;html=1;" vertex="1" parent="1">
          <mxGeometry x="440" y="260" width="120" height="60" as="geometry" />
        </mxCell>
      </root>
    </mxGraphModel>
  </diagram>
</mxfile>
